<?xml version="1.0" encoding="UTF-8" standalone="no"?>
<svg
   xmlns:dc="http://purl.org/dc/elements/1.1/"
   xmlns:cc="http://creativecommons.org/ns#"
   xmlns:rdf="http://www.w3.org/1999/02/22-rdf-syntax-ns#"
   xmlns:svg="http://www.w3.org/2000/svg"
   xmlns="http://www.w3.org/2000/svg"
   xmlns:sodipodi="http://sodipodi.sourceforge.net/DTD/sodipodi-0.dtd"
   xmlns:inkscape="http://www.inkscape.org/namespaces/inkscape"
   viewBox="-50 -50 400 400"
   version="1.1"
   id="svg4"
   sodipodi:docname="pluss.component.svg"
   inkscape:version="0.92.5 (2060ec1f9f, 2020-04-08)">
  <metadata
     id="metadata10">
    <rdf:RDF>
      <cc:Work
         rdf:about="">
        <dc:format>image/svg+xml</dc:format>
        <dc:type
           rdf:resource="http://purl.org/dc/dcmitype/StillImage" />
        <dc:title></dc:title>
      </cc:Work>
    </rdf:RDF>
  </metadata>
  <defs
     id="defs8" />
  <sodipodi:namedview
     pagecolor="#ffffff"
     bordercolor="#666666"
     borderopacity="1"
     objecttolerance="10"
     gridtolerance="10"
     guidetolerance="10"
     inkscape:pageopacity="0"
     inkscape:pageshadow="2"
     inkscape:window-width="2488"
     inkscape:window-height="1376"
     id="namedview6"
     showgrid="true"
     inkscape:snap-bbox="true"
     inkscape:snap-to-guides="true"
     inkscape:snap-grids="true"
     inkscape:bbox-paths="true"
     inkscape:bbox-nodes="true"
     inkscape:snap-bbox-edge-midpoints="true"
     inkscape:snap-bbox-midpoints="true"
     inkscape:object-paths="true"
     inkscape:snap-intersection-paths="true"
     inkscape:snap-smooth-nodes="true"
     inkscape:snap-midpoints="true"
     inkscape:snap-object-midpoints="true"
     inkscape:snap-center="true"
     inkscape:snap-page="true"
     inkscape:snap-text-baseline="true"
     inkscape:zoom="0.59"
     inkscape:cx="-25.900982"
     inkscape:cy="100.12436"
     inkscape:window-x="1992"
     inkscape:window-y="27"
     inkscape:window-maximized="1"
     inkscape:current-layer="svg4">
    <inkscape:grid
       type="xygrid"
       id="grid53" />
  </sodipodi:namedview>
  <path
     d="M 150,-50 C 39.542975,-50 -49.999913,39.543053 -49.999913,150 -49.999913,260.45695 39.542975,350 150,350 260.45702,350 349.99991,260.45695 349.99991,150 349.99991,39.543053 260.45702,-50 150,-50 Z M 110.72727,189.27273 H 30 c -10.844864,0 -19.636364,-8.7915 -19.636364,-19.63637 v -39.27272 c 0,-10.84487 8.791526,-19.65972 19.636364,-19.63637 h 80.72727 V 30 c 0,-10.844864 8.7915,-19.636364 19.63637,-19.636364 h 39.27272 c 10.84487,0 19.65972,8.791526 19.63637,19.636364 v 80.72727 H 270 c 10.84487,0 19.63636,8.7915 19.63636,19.63637 v 39.27272 c 0,10.84487 -8.79152,19.65972 -19.63636,19.63637 H 189.27273 V 270 c 0,10.84487 -8.7915,19.63636 -19.63637,19.63636 h -39.27272 c -10.84487,0 -19.63637,-8.79149 -19.63637,-19.63636 z"
     id="path2"
     inkscape:connector-curvature="0"
     sodipodi:nodetypes="ssssscsssscsssscsssscssssc" />
</svg>
