<?xml version="1.0" encoding="UTF-8" standalone="no"?>
<svg
   xmlns:dc="http://purl.org/dc/elements/1.1/"
   xmlns:cc="http://creativecommons.org/ns#"
   xmlns:rdf="http://www.w3.org/1999/02/22-rdf-syntax-ns#"
   xmlns:svg="http://www.w3.org/2000/svg"
   xmlns="http://www.w3.org/2000/svg"
   xmlns:sodipodi="http://sodipodi.sourceforge.net/DTD/sodipodi-0.dtd"
   xmlns:inkscape="http://www.inkscape.org/namespaces/inkscape"
   width="400"
   height="400"
   viewBox="0 0 400 400"
   version="1.1"
   id="svg10"
   sodipodi:docname="favicon-big.svg"
   inkscape:version="0.92.5 (2060ec1f9f, 2020-04-08)">
  <metadata
     id="metadata16">
    <rdf:RDF>
      <cc:Work
         rdf:about="">
        <dc:format>image/svg+xml</dc:format>
        <dc:type
           rdf:resource="http://purl.org/dc/dcmitype/StillImage" />
        <dc:title></dc:title>
      </cc:Work>
    </rdf:RDF>
  </metadata>
  <defs
     id="defs14" />
  <sodipodi:namedview
     pagecolor="#ffffff"
     bordercolor="#666666"
     borderopacity="1"
     objecttolerance="10"
     gridtolerance="10"
     guidetolerance="10"
     inkscape:pageopacity="0"
     inkscape:pageshadow="2"
     inkscape:window-width="2488"
     inkscape:window-height="1376"
     id="namedview12"
     showgrid="false"
     units="in"
     inkscape:zoom="0.86210046"
     inkscape:cx="6.3797669"
     inkscape:cy="136.875"
     inkscape:window-x="1992"
     inkscape:window-y="27"
     inkscape:window-maximized="1"
     inkscape:current-layer="svg10" />
  <g
     transform="scale(8)"
     id="g4"
     style="fill:#0eba91">
    <circle
       cx="25"
       cy="25"
       r="25"
       id="circle2" />
  </g>
  <g
     transform="matrix(16.286239,0,0,16.286239,44.629277,-13.349736)"
     id="g8"
     style="fill:#ffffff">
    <path
       d="m 6.08,17.36 c 0.56,0 0.96,-0.08 1.4,-0.2 v 2.62 c -0.44,0.2 -1.16,0.34 -2.22,0.34 -1.74,0 -3.2,-0.58 -3.2,-3.78 V 12.2 H 0.6 V 9.6 H 2.06 V 7.16 H 5.22 V 9.6 h 2.22 v 2.6 H 5.22 v 4.14 c 0,0.46 0.12,1.02 0.86,1.02 z M 17.8,6 13.78,11.16 c -0.08,0.02 0.04,0.04 0.24,0.04 2.32,0 4.46,2.16 4.46,4.52 0,2.66 -2.38,4.48 -4.82,4.48 -2.38,0 -4.82,-1.82 -4.82,-4.54 0,-2.26 1.22,-3.76 2.22,-5.1 L 14.52,6 Z m -4.14,7.94 c -1.24,0 -1.82,1.02 -1.82,1.74 0,1.06 0.74,1.8 1.82,1.8 1.1,0 1.84,-0.74 1.84,-1.8 0,-0.86 -0.68,-1.74 -1.84,-1.74 z"
       id="path6"
       inkscape:connector-curvature="0" />
  </g>
</svg>
