<?xml version="1.0" encoding="UTF-8" standalone="no"?>
<svg
   xmlns:dc="http://purl.org/dc/elements/1.1/"
   xmlns:cc="http://creativecommons.org/ns#"
   xmlns:rdf="http://www.w3.org/1999/02/22-rdf-syntax-ns#"
   xmlns:svg="http://www.w3.org/2000/svg"
   xmlns="http://www.w3.org/2000/svg"
   xmlns:sodipodi="http://sodipodi.sourceforge.net/DTD/sodipodi-0.dtd"
   xmlns:inkscape="http://www.inkscape.org/namespaces/inkscape"
   width="271.54901"
   height="400"
   viewBox="0 0 271.54901 399.99999"
   class=""
   version="1.1"
   id="svg10"
   sodipodi:docname="logo-six.svg"
   inkscape:version="0.92.5 (2060ec1f9f, 2020-04-08)">
  <metadata
     id="metadata16">
    <rdf:RDF>
      <cc:Work
         rdf:about="">
        <dc:format>image/svg+xml</dc:format>
        <dc:type
           rdf:resource="http://purl.org/dc/dcmitype/StillImage" />
        <dc:title></dc:title>
      </cc:Work>
    </rdf:RDF>
  </metadata>
  <defs
     id="defs14" />
  <sodipodi:namedview
     pagecolor="#ffffff"
     bordercolor="#666666"
     borderopacity="1"
     objecttolerance="10"
     gridtolerance="10"
     guidetolerance="10"
     inkscape:pageopacity="0"
     inkscape:pageshadow="2"
     inkscape:window-width="1848"
     inkscape:window-height="1043"
     id="namedview12"
     showgrid="false"
     inkscape:zoom="1.6401188"
     inkscape:cx="162.14433"
     inkscape:cy="230.12413"
     inkscape:window-x="72"
     inkscape:window-y="0"
     inkscape:window-maximized="1"
     inkscape:current-layer="svg10" />
  <path
     inkscape:connector-curvature="0"
     style="fill:#000000;fill-opacity:1;stroke-width:28.16901398"
     id="path6"
     d="M 252.39422,0 139.15479,145.3521 c -2.25352,0.56341 1.12676,1.12677 6.76057,1.12677 65.3521,0 125.6338,60.84505 125.6338,127.32392 C 271.54916,348.73239 204.50689,400 135.77451,400 68.732241,400 -1.4938477e-4,348.73239 -1.4938477e-4,272.11267 -1.4938477e-4,208.45069 34.366041,166.19716 62.535071,128.45069 L 159.99985,0 Z M 135.77451,223.66199 c -34.9296,0 -51.267619,28.73238 -51.267619,49.01404 0,29.85919 20.845059,50.70425 51.267619,50.70425 30.98591,0 51.83097,-20.84506 51.83097,-50.70425 0,-24.22534 -19.15494,-49.01404 -51.83097,-49.01404 z"
     sodipodi:nodetypes="ccsssscccsssss" />
</svg>
