<?xml version="1.0" encoding="UTF-8" standalone="no"?>
<svg
   xmlns:dc="http://purl.org/dc/elements/1.1/"
   xmlns:cc="http://creativecommons.org/ns#"
   xmlns:rdf="http://www.w3.org/1999/02/22-rdf-syntax-ns#"
   xmlns:svg="http://www.w3.org/2000/svg"
   xmlns="http://www.w3.org/2000/svg"
   xmlns:sodipodi="http://sodipodi.sourceforge.net/DTD/sodipodi-0.dtd"
   xmlns:inkscape="http://www.inkscape.org/namespaces/inkscape"
   width="400"
   height="82.896004"
   viewBox="0 0 400 82.896002"
   class=""
   version="1.1"
   id="svg10"
   sodipodi:docname="logo-text.svg"
   inkscape:version="0.92.5 (2060ec1f9f, 2020-04-08)">
  <metadata
     id="metadata16">
    <rdf:RDF>
      <cc:Work
         rdf:about="">
        <dc:format>image/svg+xml</dc:format>
        <dc:type
           rdf:resource="http://purl.org/dc/dcmitype/StillImage" />
        <dc:title />
      </cc:Work>
    </rdf:RDF>
  </metadata>
  <defs
     id="defs14" />
  <sodipodi:namedview
     pagecolor="#ffffff"
     bordercolor="#666666"
     borderopacity="1"
     objecttolerance="10"
     gridtolerance="10"
     guidetolerance="10"
     inkscape:pageopacity="0"
     inkscape:pageshadow="2"
     inkscape:window-width="1848"
     inkscape:window-height="1043"
     id="namedview12"
     showgrid="false"
     inkscape:zoom="0.82005941"
     inkscape:cx="9.4146454"
     inkscape:cy="90.237361"
     inkscape:window-x="72"
     inkscape:window-y="0"
     inkscape:window-maximized="1"
     inkscape:current-layer="svg10" />
  <path
     inkscape:connector-curvature="0"
     style="fill:#000000;fill-opacity:1;stroke-width:5.83774662"
     id="path6"
     d="m 31.989656,66.316802 c 3.269138,0 5.604236,-0.467019 8.172845,-1.167549 v 15.294896 c -2.568609,1.167549 -6.771786,1.984834 -12.959797,1.984834 -10.157679,0 -18.6807892,-3.385893 -18.6807892,-22.066682 V 36.19403 H -0.0011951 V 21.015889 H 8.5219148 V 6.7717879 H 26.969194 V 21.015889 H 39.928991 V 36.19403 H 26.969194 v 24.168271 c 0,2.685363 0.700529,5.954501 5.020462,5.954501 z M 80.092687,19.965095 c 13.777082,0 33.041643,10.391189 29.188733,37.828597 H 66.89938 c 2.101589,6.304767 7.58907,9.573905 14.944631,9.573905 7.472315,0 9.807414,-1.634569 14.010591,-3.385893 l 10.157678,9.807414 c -5.37073,5.253972 -12.609531,9.106884 -24.868799,9.106884 -15.061386,0 -33.041645,-10.391188 -33.041645,-31.290321 0,-21.249397 18.213769,-31.640586 31.990851,-31.640586 z m 0,15.761916 c -5.253972,0 -10.624699,3.035628 -12.959797,9.106884 H 92.935729 C 91.06765,38.762639 85.346659,35.727011 80.092687,35.727011 Z M 163.45571,21.015889 h 18.44728 v 60.712564 h -18.44728 v -6.071256 c -0.81729,2.101588 -6.30477,7.238805 -15.64516,7.238805 -13.89384,0 -29.88927,-9.924169 -29.88927,-31.640586 0,-20.899132 15.99543,-31.290321 29.88927,-31.290321 9.34039,0 14.82787,5.370727 15.64516,6.655031 z m -12.9598,45.651178 c 7.58907,0 13.77708,-5.253972 13.77708,-15.411651 0,-9.807414 -6.18801,-15.061386 -13.77708,-15.061386 -7.93934,0 -14.71112,5.370727 -14.71112,15.061386 0,10.040924 6.77178,15.411651 14.71112,15.411651 z M 274.95667,20.08185 c 12.95979,0 24.40178,8.406355 24.40178,28.955223 v 32.69138 H 280.91117 V 49.620847 c 0,-7.705825 -3.26914,-13.543572 -11.79225,-13.543572 -7.12205,0 -11.909,6.304767 -13.31006,11.909003 V 81.728453 H 237.36158 V 49.620847 c 0,-7.705825 -4.78695,-13.543572 -11.79225,-13.543572 -7.58907,0 -12.14251,5.137217 -13.31006,11.909003 V 81.728453 H 193.81199 V 21.015889 h 18.44728 v 11.091719 c 0.23351,-2.802119 6.18801,-12.025758 18.09701,-12.025758 8.75662,0 17.16298,4.670197 22.18344,13.193307 1.40106,-3.269138 8.40635,-13.193307 22.41695,-13.193307 z M 396.03153,2e-6 372.56379,30.122774 c -0.46702,0.116755 0.23351,0.23351 1.40106,0.23351 13.54357,0 26.03635,12.609532 26.03635,26.386614 0,15.528406 -13.89384,26.153104 -28.13794,26.153104 -13.89384,0 -28.13794,-10.624698 -28.13794,-26.503369 0,-13.193307 7.12205,-21.949927 12.9598,-29.772507 L 376.88372,2e-6 Z m -24.16827,46.351707 c -7.23881,0 -10.6247,5.954502 -10.6247,10.157679 0,6.188011 4.31993,10.507944 10.6247,10.507944 6.42152,0 10.74145,-4.319933 10.74145,-10.507944 0,-5.020462 -3.96967,-10.157679 -10.74145,-10.157679 z" />
</svg>
