<?xml version="1.0" encoding="UTF-8" standalone="no"?>
<svg
   xmlns:dc="http://purl.org/dc/elements/1.1/"
   xmlns:cc="http://creativecommons.org/ns#"
   xmlns:rdf="http://www.w3.org/1999/02/22-rdf-syntax-ns#"
   xmlns:svg="http://www.w3.org/2000/svg"
   xmlns="http://www.w3.org/2000/svg"
   xmlns:sodipodi="http://sodipodi.sourceforge.net/DTD/sodipodi-0.dtd"
   xmlns:inkscape="http://www.inkscape.org/namespaces/inkscape"
   width="550"
   height="115.452"
   viewBox="0 0 550 115.452"
   class=""
   version="1.1"
   id="svg10"
   sodipodi:docname="logo-baseline.svg"
   inkscape:version="0.92.5 (2060ec1f9f, 2020-04-08)">
  <metadata
     id="metadata16">
    <rdf:RDF>
      <cc:Work
         rdf:about="">
        <dc:format>image/svg+xml</dc:format>
        <dc:type
           rdf:resource="http://purl.org/dc/dcmitype/StillImage" />
        <dc:title />
      </cc:Work>
    </rdf:RDF>
  </metadata>
  <defs
     id="defs14" />
  <sodipodi:namedview
     pagecolor="#ffffff"
     bordercolor="#666666"
     borderopacity="1"
     objecttolerance="10"
     gridtolerance="10"
     guidetolerance="10"
     inkscape:pageopacity="0"
     inkscape:pageshadow="2"
     inkscape:window-width="1848"
     inkscape:window-height="1043"
     id="namedview12"
     showgrid="false"
     inkscape:zoom="1.1597392"
     inkscape:cx="81.108522"
     inkscape:cy="-49.593755"
     inkscape:window-x="72"
     inkscape:window-y="0"
     inkscape:window-maximized="1"
     inkscape:current-layer="svg10" />
  <g
     id="g37">
    <path
       d="m 486.95565,115.4518 c -12.59471,0 -24.74489,-5.4824 -33.04258,-15.70634 -6.51961,-8.00134 -12.29836,-14.8173 -17.18807,-20.44787 -5.4824,-6.22327 -7.85316,-14.37278 -6.51961,-22.52229 1.33356,-8.14952 6.07509,-15.26182 13.33557,-19.41067 v 0 L 501.32843,3.72936 c 7.85317,-4.59336 17.33624,-4.88971 25.48575,-1.18538 8.14952,3.85249 13.92826,11.40932 15.40999,20.2997 l 7.40865,45.04459 c 1.92625,11.70567 -3.85249,23.26316 -14.37278,28.74556 -7.55682,4.00067 -17.78076,8.89038 -30.22729,14.66913 -5.77874,2.81528 -12.00201,4.14884 -18.0771,4.14884 z M 459.33993,48.80991 c -4.0522,2.34601 -6.71812,6.29157 -7.46457,10.87695 -0.74646,4.58538 0.63982,9.2774 3.73228,12.68978 3.62565,4.05219 7.78449,9.06412 12.4765,14.8225 7.67785,9.38404 20.68753,12.36987 31.67112,7.2513 8.85085,-4.15883 16.10215,-7.67784 21.54062,-10.55703 5.97165,-3.09247 9.17075,-9.59731 8.1044,-16.20879 l -5.33185,-32.41757 c -0.85309,-5.11856 -4.05219,-9.27739 -8.63758,-11.41014 -4.69201,-2.23936 -9.91722,-1.91946 -14.39595,0.63983 z"
       id="path2"
       style="fill:#000000;fill-opacity:1;stroke-width:6.61993122;stroke-miterlimit:4;stroke-dasharray:none"
       inkscape:connector-curvature="0"
       sodipodi:nodetypes="sccsccccccccscsccccccccc" />
    <path
       d="m 31.125417,99.32132 c 3.1807,0 5.452628,-0.45439 7.951749,-1.13597 v 14.88113 c -2.499121,1.13597 -6.588592,1.93114 -12.609202,1.93114 -9.882888,0 -18.1754258,-3.29429 -18.1754258,-21.46972 V 70.01344 H 1.9999999e-8 V 55.24591 H 8.2925382 V 41.38715 H 26.240772 V 55.24591 H 38.849974 V 70.01344 H 26.240772 V 93.5279 c 0,2.61272 0.681578,5.79342 4.884645,5.79342 z M 77.92714,54.22354 c 13.404377,0 32.14779,10.11008 28.3991,36.80524 H 65.090745 c 2.044736,6.13421 7.383767,9.31491 14.540341,9.31491 7.270171,0 9.542099,-1.59035 13.63157,-3.2943 l 9.882884,9.5421 c -5.225431,5.11184 -12.268409,8.86052 -24.196032,8.86052 -14.653938,0 -32.147785,-10.11008 -32.147785,-30.44384 0,-20.67455 17.72104,-30.78463 31.125417,-30.78463 z m 0,15.33552 c -5.111839,0 -10.337274,2.9535 -12.609202,8.86052 H 90.422746 C 88.605203,72.51256 83.038979,69.55906 77.92714,69.55906 Z m 81.10784,-14.31315 h 17.94823 v 59.07013 h -17.94823 v -5.90701 c -0.79518,2.04474 -6.13421,7.04298 -15.22192,7.04298 -13.51797,0 -29.08068,-9.6557 -29.08068,-30.78463 0,-20.33376 15.56271,-30.44384 29.08068,-30.44384 9.08771,0 14.42674,5.22544 15.22192,6.475 z m -12.6092,44.4162 c 7.38376,0 13.40437,-5.11184 13.40437,-14.99473 0,-9.5421 -6.02061,-14.65394 -13.40437,-14.65394 -7.72456,0 -14.31315,5.22544 -14.31315,14.65394 0,9.76929 6.58859,14.99473 14.31315,14.99473 z M 267.51955,54.33714 c 12.60921,0 23.74166,8.17894 23.74166,28.17191 v 31.80699 H 273.31297 V 83.07703 c 0,-7.49736 -3.1807,-13.17718 -11.47324,-13.17718 -6.92938,0 -11.58683,6.1342 -12.94999,11.58683 v 32.82936 H 230.94151 V 83.07703 c 0,-7.49736 -4.65745,-13.17718 -11.47324,-13.17718 -7.38377,0 -11.81403,4.99824 -12.94999,11.58683 v 32.82936 H 188.57005 V 55.24591 h 17.94823 v 10.79166 c 0.22719,-2.72632 6.02061,-11.70043 17.60744,-11.70043 8.51974,0 16.69868,4.54385 21.58332,12.83639 1.36316,-3.1807 8.17895,-12.83639 21.81051,-12.83639 z M 385.31904,34.79855 362.48616,64.10643 c -0.45439,0.1136 0.22719,0.22719 1.36315,0.22719 13.17719,0 25.332,12.26841 25.332,25.67279 0,15.10832 -13.51797,25.4456 -27.37673,25.4456 -13.51797,0 -27.37674,-10.33728 -27.37674,-25.78639 0,-12.83639 6.92938,-21.35612 12.6092,-28.96708 l 19.65218,-25.89999 z m -23.51446,45.09778 c -7.04298,0 -10.33728,5.79342 -10.33728,9.88289 0,6.02061 4.20307,10.22368 10.33728,10.22368 6.2478,0 10.45087,-4.20307 10.45087,-10.22368 0,-4.88465 -3.86228,-9.88289 -10.45087,-9.88289 z"
       id="path6"
       style="fill:#000000;fill-opacity:1;stroke-width:5.67982054"
       inkscape:connector-curvature="0" />
  </g>
</svg>
