<?xml version="1.0" encoding="UTF-8" standalone="no"?>
<svg
   xmlns:dc="http://purl.org/dc/elements/1.1/"
   xmlns:cc="http://creativecommons.org/ns#"
   xmlns:rdf="http://www.w3.org/1999/02/22-rdf-syntax-ns#"
   xmlns:svg="http://www.w3.org/2000/svg"
   xmlns="http://www.w3.org/2000/svg"
   xmlns:sodipodi="http://sodipodi.sourceforge.net/DTD/sodipodi-0.dtd"
   xmlns:inkscape="http://www.inkscape.org/namespaces/inkscape"
   width="302.9550488599349"
   height="287.7840204154154"
   viewBox="0 0 302.9550488599349 287.7840204154154"
   class=""
   version="1.1"
   id="svg10"
   sodipodi:docname="logo.svg"
   inkscape:version="0.92.5 (2060ec1f9f, 2020-04-08)">
  <metadata
     id="metadata16">
    <rdf:RDF>
      <cc:Work
         rdf:about="">
        <dc:format>image/svg+xml</dc:format>
        <dc:type
           rdf:resource="http://purl.org/dc/dcmitype/StillImage" />
      </cc:Work>
    </rdf:RDF>
  </metadata>
  <defs
     id="defs14" />
  <sodipodi:namedview
     pagecolor="#ffffff"
     bordercolor="#666666"
     borderopacity="1"
     objecttolerance="10"
     gridtolerance="10"
     guidetolerance="10"
     inkscape:pageopacity="0"
     inkscape:pageshadow="2"
     inkscape:window-width="1848"
     inkscape:window-height="1043"
     id="namedview12"
     showgrid="false"
     inkscape:zoom="0.82005941"
     inkscape:cx="14.292341"
     inkscape:cy="143.89201"
     inkscape:window-x="72"
     inkscape:window-y="0"
     inkscape:window-maximized="1"
     inkscape:current-layer="g22" />
  <g
     id="g22">
    <path
       d="m 146.74629,189.35146 c -19.12923,0 -37.58331,-8.32684 -50.186095,-23.85527 C 86.658007,153.3435 77.881067,142.99122 70.454426,134.43933 62.127585,124.98724 58.526789,112.6095 60.552237,100.23176 62.577685,87.854029 69.779276,77.051642 80.806714,70.750249 v 0 L 168.57611,19.663958 c 11.92764,-6.976542 26.33082,-7.426641 38.70856,-1.800398 12.37773,5.851293 21.15467,17.32883 23.40517,30.831815 l 11.25249,68.415125 c 2.92564,17.77892 -5.8513,35.3328 -21.82983,43.65965 -11.47753,6.07634 -27.00597,13.50298 -45.91014,22.27992 -8.77694,4.27594 -18.22903,6.30139 -27.45607,6.30139 z M 85.082659,78.40194 c -8.55189,4.951095 -14.178134,13.277935 -15.753482,22.95507 -1.575348,9.67714 1.350298,19.57933 7.876741,26.78092 7.651691,8.55189 16.428631,19.12923 26.330822,31.28192 16.20358,19.80437 43.65965,26.10577 66.83977,15.30338 18.67913,-8.77694 33.98251,-16.20358 45.46005,-22.27993 12.60278,-6.52644 19.35428,-20.25447 17.10378,-34.20756 L 221.68785,49.820623 c -1.8004,-10.802387 -8.55189,-19.579327 -18.22903,-24.080322 -9.90219,-4.726044 -20.92962,-4.050895 -30.38171,1.350298 z"
       id="path2"
       inkscape:connector-curvature="0"
       style="fill:#000000;stroke-width:2.25049734;fill-opacity:1" />
    <path
       d="m 24.229327,275.22722 c 2.47599,0 4.244554,-0.35371 6.189974,-0.88428 v 11.58409 c -1.94542,0.88429 -5.128835,1.50328 -9.81553,1.50328 -7.693254,0 -14.1485128,-2.56441 -14.1485128,-16.71293 V 252.41274 H -6.8e-7 V 240.91708 H 6.4552582 V 230.12884 H 20.426914 v 10.78824 h 9.815531 v 11.49566 h -9.815531 v 18.30464 c 0,2.03385 0.53057,4.50984 3.802413,4.50984 z m 36.43242,-35.106 c 10.434528,0 25.025182,7.87011 22.107051,28.65074 H 50.66936 c 1.591708,4.77513 5.747833,7.25111 11.31881,7.25111 5.659405,0 7.427969,-1.23799 10.611385,-2.56441 l 7.693254,7.42797 c -4.067698,3.97927 -9.550246,6.8974 -18.835208,6.8974 -11.407238,0 -25.025182,-7.87011 -25.025182,-23.69876 0,-16.09394 13.7948,-23.96405 24.229328,-23.96405 z m 0,11.93781 c -3.979269,0 -8.046966,2.29913 -9.81553,6.8974 H 70.38885 c -1.414852,-4.59827 -5.747834,-6.8974 -9.727103,-6.8974 z m 63.137733,-11.14195 h 13.97166 v 45.98266 h -13.97166 v -4.59826 c -0.61899,1.59171 -4.77512,5.48255 -11.84937,5.48255 -10.52296,0 -22.637625,-7.5164 -22.637625,-23.96405 0,-15.82865 12.114665,-23.69876 22.637625,-23.69876 7.07425,0 11.23038,4.0677 11.84937,5.04041 z m -9.81553,34.57543 c 5.74784,0 10.43453,-3.97927 10.43453,-11.67253 0,-7.42797 -4.68669,-11.40724 -10.43453,-11.40724 -6.01311,0 -11.14195,4.0677 -11.14195,11.40724 0,7.60483 5.12884,11.67253 11.14195,11.67253 z m 94.26447,-35.28286 c 9.81553,0 18.48149,6.36683 18.48149,21.9302 v 24.75989 h -13.97165 v -24.31775 c 0,-5.83626 -2.47599,-10.25767 -8.93125,-10.25767 -5.39412,0 -9.01968,4.77512 -10.08082,9.01967 v 25.55575 h -13.97165 v -24.31775 c 0,-5.83626 -3.62556,-10.25767 -8.93125,-10.25767 -5.74783,0 -9.19653,3.89084 -10.08082,9.01967 v 25.55575 h -13.97165 v -45.98266 h 13.97165 v 8.40068 c 0.17686,-2.12228 4.6867,-9.10811 13.70638,-9.10811 6.63211,0 12.99894,3.53713 16.80135,9.99239 1.06114,-2.47599 6.36684,-9.99239 16.97822,-9.99239 z M 299.94847,225 282.1744,247.81448 c -0.35371,0.0884 0.17685,0.17685 1.06114,0.17685 10.25767,0 19.71949,9.55025 19.71949,19.98478 0,11.76095 -10.52296,19.80792 -21.3112,19.80792 -10.52296,0 -21.3112,-8.04697 -21.3112,-20.07321 0,-9.99238 5.39412,-16.6245 9.81553,-22.54919 L 285.44624,225 Z m -18.30464,35.106 c -5.48255,0 -8.04697,4.50984 -8.04697,7.69325 0,4.6867 3.27185,7.95854 8.04697,7.95854 4.86355,0 8.13539,-3.27184 8.13539,-7.95854 0,-3.80241 -3.00656,-7.69325 -8.13539,-7.69325 z"
       id="path6"
       inkscape:connector-curvature="0"
       style="fill:#000f19;stroke-width:4.42141008;fill-opacity:1" />
  </g>
</svg>
